<svg width="15" height="15" version="1.1" xmlns="http://www.w3.org/2000/svg"><path d="m13 10.8c0 1.4-0.2 2.9-2 3.6-1.8-0.7-2-2.2-2-3.6h4z" fill="#fff"/><path d="m13 11.4c-0.1 1.2-0.4 2.4-2 3-1.6-0.6-1.9-1.8-2-3" fill="#29DBFF"/><path d="m12.9 12c-0.1 0.9-0.6 1.9-2 2.4-1.4-0.5-1.8-1.5-2-2.4" fill="#fff"/><path d="m12.8 12.6c-0.2 0.6-0.7 1.4-1.8 1.9-1.1-0.4-1.6-1.2-1.8-1.9" fill="#29DBFF"/><path d="m12.5 13.1c-0.2 0.4-0.6 0.9-1.6 1.3-1-0.4-1.3-0.9-1.6-1.3" fill="#fff"/><path d="m12 13.8c-0.3 0.3-0.4 0.4-1.1 0.6-0.7-0.3-0.8-0.4-1-0.6" fill="#29DBFF"/><path d="m11 12.6-1 1.3c-0.1 0-0.4-0.3-0.5-0.5l1.5-1.8 1.4 1.8c-0.1 0.2-0.4 0.5-0.5 0.5" fill="#3a3"/><polygon points="11 7.4 10 9 11 10.4 11.9 8.9" fill="#3a3"/><ellipse transform="matrix(.9881 -.1541 .1541 .9881 -1.7146 2.276)" cx="13.8" cy="12.2" rx=".5" ry="1.6" fill="#dc9f47"/><ellipse transform="matrix(.1353 -.9908 .9908 .1353 -5.0257 18.636)" cx="8.2" cy="12.2" rx="1.6" ry=".5" fill="#dc9f47"/><g transform="scale(.71429 1)" fill="none" fill-rule="evenodd"><path d="m0 0h21v15h-21z" fill="#666"/></g><g style="stroke-width:.8717" aria-label="ﻊ"><path d="m11.79 10.864q0 0.85353-1.7071 1.5255-1.4165 0.55388-2.4335 0.55388-1.7343 0-2.9964-0.87169-1.4437-1.0079-1.4437-2.9692 0-1.2167 1.0805-2.497 1.0624-1.0624 2.5697-1.8433-0.24516-0.41768-0.78089-0.70825-0.52664-0.29056-1.026-0.32688l0.5448-1.3257q1.135-0.34504 1.9341-0.34504 2.2155 0 2.2155 1.3529 0 1.0714-1.7979 1.7071 0.46308 0.84445 0.98065 1.2077 0.58112 0.4086 1.4801 0.4086h1.3802v1.1168h-1.6072q-1.1168 0-1.8433-0.67193-0.59929-0.55388-1.0624-1.7161-1.3075 0.72641-2.2428 1.5255-1.026 1.0624-1.026 2.1429 0 1.1804 1.3529 1.925 1.135 0.61744 2.4425 0.61744 2.0884 0 3.9862-0.80813zm-5.9475-7.6817q1.0533 0.29964 1.6889 1.2077 1.1895-0.42676 1.1895-0.88985 0-0.68101-1.2349-0.68101-0.64469 0-1.6435 0.3632z" style="fill:#fff;stroke-width:.75986"/></g></svg>
