<svg width="15" height="15" version="1.1" xmlns="http://www.w3.org/2000/svg"><path d="m13 10.8c0 1.4-0.2 2.9-2 3.6-1.8-0.7-2-2.2-2-3.6h4z" fill="#fff"/><path d="m13 11.4c-0.1 1.2-0.4 2.4-2 3-1.6-0.6-1.9-1.8-2-3" fill="#29DBFF"/><path d="m12.9 12c-0.1 0.9-0.6 1.9-2 2.4-1.4-0.5-1.8-1.5-2-2.4" fill="#fff"/><path d="m12.8 12.6c-0.2 0.6-0.7 1.4-1.8 1.9-1.1-0.4-1.6-1.2-1.8-1.9" fill="#29DBFF"/><path d="m12.5 13.1c-0.2 0.4-0.6 0.9-1.6 1.3-1-0.4-1.3-0.9-1.6-1.3" fill="#fff"/><path d="m12 13.8c-0.3 0.3-0.4 0.4-1.1 0.6-0.7-0.3-0.8-0.4-1-0.6" fill="#29DBFF"/><path d="m11 12.6-1 1.3c-0.1 0-0.4-0.3-0.5-0.5l1.5-1.8 1.4 1.8c-0.1 0.2-0.4 0.5-0.5 0.5" fill="#3a3"/><polygon points="11 7.4 10 9 11 10.4 11.9 8.9" fill="#3a3"/><ellipse transform="matrix(.9881 -.1541 .1541 .9881 -1.7146 2.276)" cx="13.8" cy="12.2" rx=".5" ry="1.6" fill="#dc9f47"/><ellipse transform="matrix(.1353 -.9908 .9908 .1353 -5.0257 18.636)" cx="8.2" cy="12.2" rx="1.6" ry=".5" fill="#dc9f47"/><g transform="scale(.71429 1)" fill="none" fill-rule="evenodd"><path d="m0 0h21v15h-21z" fill="#666"/></g><g transform="translate(.83667 .84277)" style="stroke-width:.86592" aria-label="ﻑ"><path d="m11.345 8.8716q-0.67649 0.47805-1.371 0.47805-0.63139 0-1.0824-0.21648-0.44197-0.21648-0.44197-0.61335 0-1.1275 0.55021-2.4173 0.55021-1.2898 1.3349-1.2898 0.78473 0 1.2538 1.2087 0.47805 1.2087 0.47805 2.4985t-0.28864 2.1016q-0.28864 0.81179-1.0012 1.1455-0.70355 0.33374-2.9405 0.33374h-2.4354q-2.6067 0-3.3734-0.50511-0.76669-0.50511-0.76669-1.4342 0-0.76669 0.39687-1.7228 0.40589-0.96513 0.77571-0.96513 0.10824 0 0.10824 0.16236 0 0.14432-0.27962 0.73061-0.27962 0.57727-0.27962 0.91101 0 0.83885 0.77571 1.2808 0.77571 0.43295 3.2111 0.43295h1.5424q2.8413 0 3.3644-0.42393 0.53217-0.43295 0.53217-1.1275 0-0.20746-0.06314-0.56825zm-0.29766-1.0463q-0.37884-1.8852-0.98317-1.8852-0.43295 0-0.73061 0.60433-0.28864 0.59531-0.28864 1.1726 0 0.49609 0.82081 0.49609 0.40589 0 1.1816-0.38785zm-0.27962-5.6284-0.98317 0.99219-1.0012-0.99219 1.0012-0.98317z" style="fill:#fff;stroke-width:.74982"/></g></svg>
