<?xml version="1.0" encoding="UTF-8"?>
<svg width="15" height="15" version="1.1" xmlns="http://www.w3.org/2000/svg">
 <path d="m13 10.8c0 1.4-0.2 2.9-2 3.6-1.8-0.7-2-2.2-2-3.6h4z" fill="#fff"/>
 <path d="m13 11.4c-0.1 1.2-0.4 2.4-2 3-1.6-0.6-1.9-1.8-2-3" fill="#29DBFF"/>
 <path d="m12.9 12c-0.1 0.9-0.6 1.9-2 2.4-1.4-0.5-1.8-1.5-2-2.4" fill="#fff"/>
 <path d="m12.8 12.6c-0.2 0.6-0.7 1.4-1.8 1.9-1.1-0.4-1.6-1.2-1.8-1.9" fill="#29DBFF"/>
 <path d="m12.5 13.1c-0.2 0.4-0.6 0.9-1.6 1.3-1-0.4-1.3-0.9-1.6-1.3" fill="#fff"/>
 <path d="m12 13.8c-0.3 0.3-0.4 0.4-1.1 0.6-0.7-0.3-0.8-0.4-1-0.6" fill="#29DBFF"/>
 <path d="m11 12.6-1 1.3c-0.1 0-0.4-0.3-0.5-0.5l1.5-1.8 1.4 1.8c-0.1 0.2-0.4 0.5-0.5 0.5" fill="#3a3"/>
 <polygon points="11 7.4 10 9 11 10.4 11.9 8.9" fill="#3a3"/>
 <ellipse transform="matrix(.9881 -.1541 .1541 .9881 -1.7146 2.276)" cx="13.8" cy="12.2" rx=".5" ry="1.6" fill="#dc9f47"/>
 <ellipse transform="matrix(.1353 -.9908 .9908 .1353 -5.0257 18.636)" cx="8.2" cy="12.2" rx="1.6" ry=".5" fill="#dc9f47"/>
 <g transform="scale(.71429 1)" fill="none" fill-rule="evenodd">
  <path d="m0 0h21v15h-21z" fill="#666"/>
 </g>
 <text x="1.1458435" y="13.713531" fill="#000000" font-family="sans-serif" font-size="21.333px" letter-spacing="0px" word-spacing="0px" style="line-height:1.25" xml:space="preserve"><tspan x="1.1458435" y="13.713531" fill="#ffffff" font-family="'Courier New'" font-size="21.333px">ﻑ</tspan></text>
</svg>
