<svg xmlns="http://www.w3.org/2000/svg" width="21" height="15" viewBox="0 0 454 340" version="1.1"><path d="M 0 170.002 L 0 340.004 227.250 339.752 L 454.500 339.500 454.753 169.750 L 455.006 -0 227.503 -0 L 0 0 0 170.002 M 0.489 170.500 C 0.489 264, 0.606 302.398, 0.750 255.829 C 0.894 209.260, 0.894 132.760, 0.750 85.829 C 0.606 38.898, 0.489 77, 0.489 170.500 M 213.209 4.525 C 192.310 9.063, 175.369 25.612, 170.506 46.240 C 167.316 59.766, 169.077 73.663, 175.532 85.908 C 180.255 94.869, 185.773 101.039, 193.778 106.310 C 203.597 112.776, 210.747 115.161, 222 115.726 C 238.761 116.567, 251.593 111.989, 263.377 100.966 C 271.140 93.705, 275.388 87.343, 278.537 78.264 C 292.897 36.860, 256.015 -4.770, 213.209 4.525 M 72.207 79.193 C 71.281 80.119, 71 103.351, 71 179.106 L 71 277.812 76.250 278.528 C 82.736 279.411, 106.937 285.987, 120.928 290.667 C 144.715 298.624, 177.249 313.165, 197.393 324.844 C 202.285 327.680, 206.427 330, 206.599 330 C 206.771 330, 209.481 331.800, 212.621 334 C 215.762 336.200, 218.709 338, 219.170 338 C 219.632 338, 219.895 291.994, 219.755 235.764 L 219.500 133.528 214.544 130.286 C 208.788 126.519, 171.995 107.740, 161 102.957 C 138.696 93.254, 104.918 82.334, 90.500 80.167 C 76.929 78.127, 73.458 77.942, 72.207 79.193 M 368.888 79.009 C 349.432 80.872, 323.054 88.825, 290.762 102.564 C 270.089 111.359, 236.392 128.751, 232.518 132.625 C 231.181 133.962, 231 146.273, 231 236.071 C 231 292.132, 231.135 338, 231.300 338 C 231.465 338, 237.652 334.368, 245.050 329.929 C 261.385 320.126, 294.152 303.867, 310.500 297.453 C 330.328 289.673, 351.164 283.164, 365.225 280.357 C 372.526 278.899, 378.831 277.210, 379.235 276.603 C 379.639 275.997, 379.976 231.336, 379.985 177.357 C 379.999 88.777, 379.846 79.155, 378.418 78.607 C 377.548 78.273, 376.761 78.063, 376.668 78.140 C 376.576 78.217, 373.074 78.608, 368.888 79.009" stroke="none" fill="#24347c" fill-rule="evenodd"/><path d="M 213.209 4.525 C 192.310 9.063, 175.369 25.612, 170.506 46.240 C 167.316 59.766, 169.077 73.663, 175.532 85.908 C 180.255 94.869, 185.773 101.039, 193.778 106.310 C 203.597 112.776, 210.747 115.161, 222 115.726 C 238.761 116.567, 251.593 111.989, 263.377 100.966 C 271.140 93.705, 275.388 87.343, 278.537 78.264 C 292.897 36.860, 256.015 -4.770, 213.209 4.525 M 72.207 79.193 C 71.281 80.119, 71 103.351, 71 179.106 L 71 277.812 76.250 278.528 C 82.736 279.411, 106.937 285.987, 120.928 290.667 C 144.715 298.624, 177.249 313.165, 197.393 324.844 C 202.285 327.680, 206.427 330, 206.599 330 C 206.771 330, 209.481 331.800, 212.621 334 C 215.762 336.200, 218.709 338, 219.170 338 C 219.632 338, 219.895 291.994, 219.755 235.764 L 219.500 133.528 214.544 130.286 C 208.788 126.519, 171.995 107.740, 161 102.957 C 138.696 93.254, 104.918 82.334, 90.500 80.167 C 76.929 78.127, 73.458 77.942, 72.207 79.193 M 368.888 79.009 C 349.432 80.872, 323.054 88.825, 290.762 102.564 C 270.089 111.359, 236.392 128.751, 232.518 132.625 C 231.181 133.962, 231 146.273, 231 236.071 C 231 292.132, 231.135 338, 231.300 338 C 231.465 338, 237.652 334.368, 245.050 329.929 C 261.385 320.126, 294.152 303.867, 310.500 297.453 C 330.328 289.673, 351.164 283.164, 365.225 280.357 C 372.526 278.899, 378.831 277.210, 379.235 276.603 C 379.639 275.997, 379.976 231.336, 379.985 177.357 C 379.999 88.777, 379.846 79.155, 378.418 78.607 C 377.548 78.273, 376.761 78.063, 376.668 78.140 C 376.576 78.217, 373.074 78.608, 368.888 79.009" stroke="none" fill="#fbfbfb" fill-rule="evenodd"/></svg>