<svg width="21" height="15" fill="none" xmlns="http://www.w3.org/2000/svg"><path fill="#243282" d="M0 0h21v15H0z"/><g fill="#fff"><path d="M9.882 6.46v7.405c-.187-.124-.347-.213-.498-.32a16.338 16.338 0 00-3.129-1.44c-.462-.16-.942-.276-1.414-.4a2.337 2.337 0 00-.346-.053c-.071 0-.09-.027-.09-.098V4.495c0-.124.063-.184.188-.178.408.018.809.107 1.2.214A15.35 15.35 0 018.61 5.642c.4.196.782.418 1.164.631.072.045.107.098.107.187zM16.585 4.397v7.121c0 .098-.026.125-.124.142a8.17 8.17 0 00-1.53.374c-.924.31-1.804.693-2.649 1.147-.355.195-.693.4-1.04.613-.026.018-.062.036-.124.071V6.47c0-.107.035-.16.124-.214a17.771 17.771 0 013.059-1.44c.622-.222 1.244-.418 1.902-.489.098 0 .204-.018.311-.018.054 0 .08.018.08.08zM12.567 3.206a2.073 2.073 0 01-2.071 2.071 2.068 2.068 0 01-2.072-2.07c0-1.148.925-2.072 2.072-2.072 1.146 0 2.071.924 2.071 2.071z"/></g></svg>
