<svg width="21" height="15" xmlns="http://www.w3.org/2000/svg" xmlns:xlink="http://www.w3.org/1999/xlink"><path fill="green" d="M0 0h21v15H0z"/><path fill="#0080ff" d="M0 0h21v7.5H0z"/><circle cx="10.5" cy="7.5" r="5" fill="#f80000"/><g fill="#0080ff" transform="translate(-.75) scale(.025)"><g id="b"><use xlink:href="#a" transform="rotate(-90 450 300)"/><use xlink:href="#a" transform="rotate(-67.5 450 300)"/><use xlink:href="#a" transform="rotate(-45 450 300)"/><use xlink:href="#a" transform="rotate(-22.5 450 300)"/><g id="a" transform="rotate(11.25 450 300)"><circle cx="450" cy="140.625" r="20.625"/><circle cx="450" cy="242.5" r="7.5"/><path d="m429.1974 141.9885 13.2973 101.0034 11.8974-1.5663 4.5486-103.353z"/><path d="m470.8026 141.9885-13.2973 101.0034-11.8974-1.5663-4.5486-103.353Z"/></g><use xlink:href="#a" transform="rotate(22.5 450 300)"/><use xlink:href="#a" transform="rotate(45 450 300)"/><use xlink:href="#a" transform="rotate(67.5 450 300)"/></g></g><use xlink:href="#b" fill="green" transform="matrix(-.025 0 0 -.025 21.75 15)"/></svg>
